<svg width="67" height="59" viewBox="0 0 67 59" fill="none" xmlns="http://www.w3.org/2000/svg">
<path d="M46.2399 54.9713C46.2836 54.9366 46.3189 54.8926 46.3431 54.8423C46.3673 54.7921 46.3799 54.7371 46.3799 54.6813L45.9899 47.6813L49.3599 45.6213C49.6129 45.4684 49.8331 45.267 50.0079 45.0287C50.1827 44.7903 50.3085 44.5197 50.3783 44.2325C50.448 43.9452 50.4601 43.647 50.4141 43.3551C50.368 43.0631 50.2646 42.7831 50.1099 42.5313L48.8399 40.4413C48.5274 39.9318 48.0258 39.5667 47.4448 39.4262C46.8638 39.2856 46.2508 39.381 45.7399 39.6913L45.5599 39.8013L44.7699 25.4213L60.7699 17.1713C61.6074 16.6614 62.3356 15.9906 62.9123 15.1976C63.489 14.4046 63.9029 13.5052 64.1299 12.5513L64.1899 12.2813L66.3499 8.85132C66.7078 8.27486 66.8975 7.60983 66.8975 6.9313C66.8975 6.25278 66.7078 5.58775 66.3499 5.01129V5.01129C65.996 4.42912 65.4863 3.95762 64.8784 3.65012C64.2704 3.34261 63.5886 3.21139 62.9099 3.2713L58.9099 3.62131C57.9187 3.33863 56.8795 3.26556 55.8585 3.40674C54.8375 3.54792 53.8572 3.90027 52.9799 4.44131L38.2399 14.8513L25.8199 7.57129L25.9999 7.4613C26.5095 7.14881 26.8745 6.64715 27.015 6.06616C27.1556 5.48517 27.0603 4.87216 26.7499 4.3613L25.4799 2.2713C25.1656 1.76379 24.664 1.4005 24.0838 1.26013C23.5036 1.11976 22.8914 1.21359 22.3799 1.5213L19.0099 3.5813L13.0099 0.0413184C12.9591 0.014182 12.9025 -2.3602e-06 12.8449 -2.36271e-06C12.7873 -2.36523e-06 12.7307 0.014182 12.6799 0.0413184L6.9599 2.9913C6.90561 3.02136 6.85977 3.06461 6.82657 3.11703C6.79337 3.16946 6.77387 3.22936 6.7699 3.29129C6.75508 3.35037 6.75508 3.41223 6.7699 3.47131C6.80289 3.52123 6.8475 3.56241 6.8999 3.59131L9.8399 5.23129L11.9499 7.88131L10.4299 8.81131C10.3917 8.83482 10.3585 8.86567 10.3322 8.90207C10.306 8.93847 10.2872 8.97971 10.277 9.0234C10.2668 9.0671 10.2653 9.11238 10.2727 9.15664C10.28 9.20091 10.2961 9.24328 10.3199 9.28131L10.4899 9.56131L9.16989 10.3713C8.94791 10.5098 8.78905 10.7297 8.72736 10.9839C8.66566 11.2382 8.70607 11.5065 8.8399 11.7313L10.7299 14.8313C10.8684 15.0533 11.0883 15.2121 11.3426 15.2738C11.5968 15.3355 11.8651 15.2951 12.0899 15.1613L13.4099 14.3513L13.5799 14.6313C13.6276 14.7082 13.7031 14.7635 13.7907 14.7859C13.8784 14.8083 13.9712 14.7959 14.0499 14.7513L16.2999 13.3713L24.9699 24.2813L12.0699 33.4613L3.6199 29.9413L-9.29428e-05 31.8013L5.66989 38.1113L3.34988 40.8013L5.71991 44.6913L9.10989 43.7613L12.1099 51.6713L15.4199 49.3113L16.1599 40.1813L30.5099 32.7613L35.9599 45.6113L33.6999 46.9913C33.6237 47.0371 33.5686 47.1109 33.5461 47.1968C33.5237 47.2828 33.5358 47.3741 33.5799 47.4513L33.7599 47.7413L32.4299 48.5513C32.2123 48.6912 32.0574 48.91 31.9977 49.1618C31.938 49.4135 31.9782 49.6786 32.1099 49.9013L33.9999 53.0013C34.1382 53.2206 34.3564 53.3776 34.6082 53.4391C34.8601 53.5007 35.126 53.462 35.3499 53.3313L36.6799 52.5313L36.8499 52.8113C36.8734 52.8495 36.9043 52.8827 36.9407 52.9089C36.9771 52.9352 37.0183 52.9539 37.062 52.9642C37.1057 52.9744 37.151 52.9759 37.1952 52.9685C37.2395 52.9612 37.2819 52.9451 37.3199 52.9213L38.8399 52.0013L40.2299 55.0813L40.3399 58.4513C40.3459 58.5106 40.3628 58.5682 40.3899 58.6213C40.4265 58.6744 40.4743 58.7188 40.5299 58.7513C40.5834 58.7811 40.6436 58.7967 40.7049 58.7967C40.7661 58.7967 40.8264 58.7811 40.8799 58.7513L46.2399 54.9713ZM19.7499 3.97131L22.7499 2.1113C23.1068 1.89306 23.5356 1.82525 23.9424 1.92273C24.3492 2.02021 24.7007 2.27504 24.9199 2.63132L26.1999 4.72131C26.4146 5.08005 26.4794 5.5089 26.3802 5.91504C26.281 6.32118 26.0258 6.67191 25.6699 6.89129L25.1799 7.19131L22.4399 5.5813L19.7499 3.97131ZM11.8199 14.5813C11.7506 14.6225 11.668 14.6351 11.5896 14.6164C11.5112 14.5978 11.4432 14.5493 11.3999 14.4813L9.50989 11.3713C9.48816 11.3374 9.4735 11.2994 9.46677 11.2597C9.46003 11.2199 9.46137 11.1793 9.4707 11.1401C9.48004 11.1009 9.49717 11.064 9.52109 11.0315C9.545 10.9991 9.57521 10.9718 9.60989 10.9513L10.9299 10.1413L13.1499 13.7713L11.8199 14.5813ZM14.0799 13.9913L11.1599 9.2113L12.4599 8.42129L15.9699 12.8413L14.0799 13.9913ZM16.7399 12.7213L12.8099 7.72131L10.4299 4.72131C10.4015 4.68625 10.3677 4.65588 10.3299 4.63131L7.87991 3.2713L12.8799 0.691282L21.8799 5.95129L25.0899 7.84131L37.7299 15.2513L25.5899 23.8113L16.7399 12.7213ZM46.0899 40.2913C46.4468 40.0731 46.8756 40.0053 47.2824 40.1028C47.6892 40.2002 48.0407 40.455 48.2599 40.8113L49.5299 42.9013C49.7481 43.2582 49.816 43.687 49.7185 44.0938C49.621 44.5006 49.3662 44.8521 49.0099 45.0713L45.9499 46.9313L45.7799 43.7613L45.5999 40.5813L46.0899 40.2913ZM62.9799 3.95129C63.5334 3.89675 64.0909 4.00143 64.587 4.25299C65.083 4.50455 65.4969 4.89253 65.7799 5.37131V5.37131C66.0758 5.83966 66.2329 6.38231 66.2329 6.93631C66.2329 7.49031 66.0758 8.03296 65.7799 8.50131L64.3499 10.7813L64.3499 10.6813C64.3498 10.4202 64.3297 10.1594 64.2899 9.90131C64.2996 9.82495 64.2996 9.74765 64.2899 9.6713C64.2501 9.37747 64.19 9.08677 64.1099 8.8013L64.1099 8.72131C64.0299 8.45671 63.9365 8.19637 63.8299 7.94131L63.7299 7.73129C63.6099 7.45136 63.4696 7.18063 63.3099 6.9213C63.1499 6.6613 62.9699 6.41129 62.7899 6.17129L62.6399 5.9913C62.4603 5.77845 62.2701 5.57486 62.0699 5.38132L62.0199 5.3313C61.798 5.13077 61.5642 4.94377 61.3199 4.7713L61.1399 4.6413C60.9214 4.49154 60.6943 4.35464 60.4599 4.23129C60.4356 4.21109 60.4087 4.19428 60.3799 4.1813L62.9799 3.95129ZM58.7599 4.29129C60.3901 4.76676 61.7822 5.83755 62.6599 7.29129C63.5426 8.74368 63.8494 10.474 63.5199 12.1413L63.4599 12.4213C63.0396 14.17 61.9427 15.6805 60.4099 16.6213L44.2699 24.9613L30.6399 31.9613L9.52991 42.8813L8.60989 41.3713C11.1099 39.838 13.6099 38.3113 16.1099 36.7913C16.3276 36.6529 16.4833 36.4358 16.5447 36.1853C16.6061 35.9348 16.5683 35.6702 16.4392 35.4469C16.3101 35.2236 16.0998 35.0589 15.852 34.987C15.6043 34.9151 15.3384 34.9418 15.1099 35.0613L7.59988 39.6313L6.7099 38.1713L38.4699 15.5813L38.5799 15.5113L53.2399 5.00131C54.0531 4.50234 54.9622 4.18033 55.9082 4.05627C56.8541 3.93222 57.8156 4.0089 58.7299 4.28131L58.7599 4.29129ZM1.1799 32.0013L3.7399 30.6813L11.3999 33.8713L6.29989 37.6213L6.29989 37.5413L6.24991 37.6013L1.1799 32.0013ZM6.1199 43.9013L4.2699 40.9013L6.15991 38.7113L6.96991 40.0513C6.7405 40.1919 6.57631 40.4178 6.51349 40.6794C6.45066 40.941 6.49432 41.2169 6.63489 41.4463C6.77545 41.6757 7.00142 41.8399 7.26303 41.9027C7.52464 41.9655 7.80049 41.9219 8.02991 41.7813L8.87991 43.1713L6.1199 43.9013ZM14.8799 48.9013L12.5399 50.5713L9.84988 43.5713L9.9299 43.5713L9.9299 43.5013L15.5899 40.6813L14.8799 48.9013ZM35.1099 52.7213C35.0394 52.7616 34.956 52.7727 34.8774 52.7521C34.7989 52.7315 34.7316 52.681 34.6899 52.6113L32.7899 49.5113C32.7684 49.476 32.7541 49.4367 32.748 49.3958C32.7419 49.3549 32.744 49.3132 32.7543 49.2731C32.7645 49.2331 32.7827 49.1954 32.8077 49.1625C32.8327 49.1295 32.8641 49.1019 32.8999 49.0813L34.2199 48.2813L36.4399 51.9113L35.1099 52.7213ZM37.3599 52.1313L34.4499 47.3513L36.3399 46.1913L36.5599 46.6713L38.6699 51.3413L37.3599 52.1313ZM41.0199 54.9513L41.0199 54.8313L39.4499 51.3313L36.8399 45.5713L31.2399 32.4613L42.7599 26.4613L44.1199 25.7513L44.9299 40.3913L45.1399 44.0513L45.7099 54.5113L41.1299 57.7713L41.0199 54.9513Z" fill="#999999"/>
</svg>
