<svg width="325" height="72" viewBox="0 0 325 72" fill="none" xmlns="http://www.w3.org/2000/svg">
<path fill-rule="evenodd" clip-rule="evenodd" d="M65.1505 25.9353C62.3554 28.6146 63.1556 28.3014 56.6527 26.3412C50.9499 24.4854 53.6548 23.8707 48.5493 26.8516C43.951 29.6353 36.445 32.4075 32.9512 34.5649C34.2585 37.5458 45.45 47.3237 48.1548 51.337C47.1518 51.8473 46.3516 52.2649 45.2584 52.7752C43.5565 53.5988 43.9623 53.5988 41.9562 52.3693C37.5607 49.7943 23.4503 41.5591 20.6553 40.3296C16.9586 41.9766 7.15347 47.1266 3.7611 46.9178C2.16072 46.8134 -0.442715 46.4074 0.0644487 44.3428C1.36053 39.2973 10.1626 36.5251 15.8654 33.9501C18.1645 32.9178 17.5672 33.0222 18.0631 30.4473C18.6717 27.6751 22.4698 7.50453 23.3602 6.47222C23.7546 6.15905 26.854 4.82517 27.4626 4.51199C27.7669 6.36783 27.9585 8.42085 28.0599 10.3811L29.0629 21.806C29.0629 23.6619 29.3672 25.8193 29.6603 27.5707C32.2637 26.2368 34.8559 25.1001 37.5607 23.7663C50.9612 17.1781 48.5606 21.6089 51.6599 14.1971C53.4632 10.0795 53.4632 7.60892 57.3627 8.22366C56.6527 16.4705 58.8504 21.6089 65.1505 25.9353ZM62.2428 15.7514C60.7438 16.2617 61.3411 18.6279 63.0429 18.222L65.3421 17.3984C66.7396 16.9809 66.3451 14.5219 64.5419 15.0322L62.2428 15.7514ZM322.722 71.2176C324.018 72.2499 325.517 70.1853 324.221 69.2574L323.218 68.3294C321.821 67.1927 320.423 69.3617 321.618 70.2897L322.722 71.2176ZM315.825 65.5573C317.132 66.5896 318.62 64.525 317.425 63.5043L315.419 61.9616C314.123 60.9293 312.613 62.8895 313.92 63.9219L315.825 65.5573ZM308.026 59.2823C309.22 60.3146 310.821 58.3544 309.525 57.322L307.53 55.7794C306.234 54.7471 304.633 56.7073 306.031 57.8324L308.026 59.2823ZM300.024 53.4132C301.421 54.3411 302.729 52.1837 301.421 51.2558L299.427 49.8175C297.928 48.8896 296.62 51.0586 298.029 51.9749L300.024 53.4132ZM291.83 47.6485C293.228 48.5764 294.524 46.419 293.228 45.4911L291.132 44.1572C289.734 43.2293 288.427 45.3983 289.734 46.3146L291.83 47.6485ZM283.524 42.197C284.831 43.1249 286.229 41.0603 284.831 40.0396L282.634 38.7057C281.439 37.8822 279.94 39.9352 281.439 40.9675L283.524 42.197ZM275.026 37.0471C276.525 37.8706 277.528 35.6088 276.232 34.8897L274.034 33.5558C272.536 32.8366 271.431 35.0984 272.84 35.8176L275.026 37.0471ZM266.337 32.2103C267.836 32.9294 268.94 30.772 267.43 29.9485L265.232 28.8118C263.733 27.9883 262.73 30.3545 264.128 31.0736L266.337 32.2103ZM257.433 27.6867C258.932 28.4058 260.037 26.1441 258.538 25.4249L256.34 24.2882C254.943 23.5691 253.748 25.8309 255.236 26.55L257.433 27.6867ZM248.53 23.4647C250.13 24.0794 250.93 21.7132 249.431 21.0985L247.234 20.0662C245.633 19.4515 244.732 21.922 246.231 22.4324L248.53 23.4647ZM239.333 19.6602C240.832 20.275 241.824 17.9088 240.235 17.1897L237.936 16.3661C236.437 15.7514 235.535 18.1176 237.034 18.7323L239.333 19.6602ZM230.137 16.1573C231.838 16.6677 232.334 14.1043 230.937 13.6868L228.536 12.8632C226.834 12.3529 226.339 14.8235 227.736 15.3338L230.137 16.1573ZM220.737 12.9676C222.338 13.478 222.935 11.019 221.436 10.6014L219.035 9.88232C217.435 9.37196 216.736 11.8425 218.337 12.2485L220.737 12.9676ZM211.236 10.2999C212.634 10.7058 213.535 8.33965 211.834 7.82929L209.433 7.21455C207.63 6.80859 207.326 9.37196 208.836 9.68513L211.236 10.2999ZM201.634 8.02648C203.234 8.33965 203.629 5.76469 202.13 5.45152L199.628 4.94115C198.028 4.62798 197.622 7.09856 199.233 7.41174L201.634 8.02648ZM191.942 6.07786C193.441 6.39103 194.049 3.92045 192.336 3.60728C191.536 3.3985 190.736 3.29411 189.834 3.09693C188.436 2.88815 187.738 5.35872 189.439 5.67189C190.341 5.76468 191.141 5.97347 191.942 6.07786ZM182.136 4.53519C183.838 4.74398 184.041 2.27339 182.441 2.06461L180.04 1.75144C178.338 1.54266 178.135 4.11763 179.736 4.22202L182.136 4.53519ZM172.342 3.50289C173.943 3.71167 174.236 1.1367 172.545 0.927917L170.043 0.719139C168.544 0.614748 168.139 3.08532 169.942 3.29411L172.342 3.50289ZM162.537 2.88815C164.239 2.88815 164.138 0.313179 162.639 0.313179L160.137 0.208778C158.435 0.208778 158.435 2.67936 160.035 2.78375L162.537 2.88815ZM152.642 2.57497C154.242 2.57497 154.344 0.104391 152.642 0C151.842 0 150.94 0 150.14 0C148.641 0 148.438 2.57497 150.14 2.57497C151.042 2.57497 151.842 2.57497 152.642 2.57497ZM142.747 2.78375C144.55 2.67936 144.246 0.104388 142.645 0.208778L140.245 0.313179C138.543 0.41757 138.746 2.99254 140.346 2.88815L142.747 2.78375ZM132.941 3.29411C134.542 3.18971 134.44 0.614743 132.739 0.823524L130.237 1.03231C128.636 1.1367 128.839 3.60728 130.439 3.50289L132.941 3.29411ZM123.147 4.32642C124.646 4.11763 124.545 1.54266 122.843 1.75144C122.043 1.85583 121.141 1.96022 120.341 2.06461C118.842 2.169 118.944 4.74398 120.646 4.53519C121.446 4.4308 122.246 4.32642 123.147 4.32642ZM113.342 5.5559C115.044 5.24273 114.436 2.78375 112.948 3.08533L110.446 3.49129C108.846 3.80446 109.341 6.27503 110.84 5.96186L113.342 5.5559ZM103.537 7.30734C105.138 6.99417 104.743 4.5352 103.143 4.83677L100.652 5.24274C99.153 5.55591 99.5475 8.11928 101.148 7.8177L103.537 7.30734ZM93.9461 9.37196C95.4451 9.05878 95.0506 6.49542 93.3488 6.90138L90.9482 7.41174C89.2464 7.92209 90.0466 10.2999 91.5455 9.88232L93.9461 9.37196ZM84.3438 11.7381C85.9442 11.2278 85.2455 8.86161 83.7465 9.26757L81.2445 9.88232C79.6441 10.3927 80.3429 12.7589 81.9433 12.3529L84.3438 11.7381ZM74.8429 14.4059C76.3419 13.9999 75.7446 11.5294 74.1442 11.9353L71.7436 12.6545C70.2447 13.0604 70.7406 15.6354 72.4424 15.125L74.8429 14.4059Z" fill="#CCCCCC"/>
</svg>
